# xmcd
#
# Track frame offsets:
#	150
#	4797
#	21095
#	42975
#	60082
#	78765
#	92050
#	100905
#	116402
#	129000
#	152100
#
# Disc length: 2282 seconds
#
# Revision: 1
# Processed by: cddbd v1.5.1PL2 Copyright (c) Steve Scherf et al.
# Submitted via: dBpowerAMP V4.0
#
DISCID=7008e80b
DTITLE=Christian Kjellvander - Faya
DYEAR=2005
DGENRE=Country
TTITLE0=As It Where
TTITLE1=Reverse Traverse Blues
TTITLE2=Drunken Hands
TTITLE3=Juanita
TTITLE4=Chose The City
TTITLE5=Drag The Dirt In
TTITLE6=Dreadful (Isn't It)
TTITLE7=Foreign Rain
TTITLE8=Silver and Blue Line
TTITLE9=Roaring 40's
TTITLE10=Union Lake
EXTD=
EXTT0=
EXTT1=
EXTT2=
EXTT3=
EXTT4=
EXTT5=
EXTT6=
EXTT7=
EXTT8=
EXTT9=
EXTT10=
PLAYORDER=
